<svg height="32" viewBox="0 0 32 32" width="32" xmlns="http://www.w3.org/2000/svg"><path d="m20.649 21.349c.064.004.133.012.202.012.977.001 1.955-.005 2.932.005.214.002.278-.071.267-.276-.014-.267-.003-.535-.003-.865 1.109.816 2.181 1.604 3.281 2.414-1.092.804-2.164 1.593-3.281 2.416 0-.311 0-.568 0-.825 0-.332 0-.333-.323-.333-6.247 0-12.495 0-18.742 0-.302 0-.302 0-.302-.304 0-.659.009-1.318-.005-1.976-.005-.214.064-.262.269-.261 3.359.006 6.718.011 10.077.002 1.722-.005 3.081-.718 3.98-2.202 1.622-2.68-.069-6.19-3.177-6.642-2.4-.349-4.631 1.262-5.038 3.703-.043.254-.046.515-.071.821.393-.053.749-.102 1.152-.156-.631 1.22-1.24 2.398-1.858 3.592-.947-.976-1.88-1.937-2.792-2.877.229-.038.533-.082.834-.145.057-.012.141-.104.139-.157-.017-.639.027-1.271.152-1.898.004-.019-.005-.041-.011-.078-.61-.104-1.176-.324-1.689-.678-1.254-.868-1.91-2.483-1.602-3.955.335-1.604 1.545-2.803 3.109-3.099 1.014-.191 1.954-.009 2.827.527.154.095.248.109.349-.056.059-.097.148-.175.25-.293.127.512.246.991.364 1.47.04.161.071.325.118.484.051.172-.001.249-.183.237-.526-.036-1.053-.068-1.579-.103-.13-.009-.259-.023-.426-.039.13-.164.248-.311.377-.472-.284-.216-.597-.324-.923-.377-1.576-.258-2.965.953-2.933 2.548.024 1.224 1.056 2.318 2.275 2.422.158.013.213-.067.274-.185.864-1.658 2.165-2.83 3.935-3.44 4.095-1.412 8.37 1.118 9.159 5.259.389 2.039-.054 3.901-1.291 5.57-.034.046-.065.095-.095.144-.006.009.002.027.007.065z" fill="#444"/></svg>